<svg width="61" height="61" viewBox="0 0 61 61" fill="none" xmlns="http://www.w3.org/2000/svg">
<g clip-path="url(#clip0_1389_3871)">
<path d="M38.3973 39.9889C37.5107 39.9889 36.7414 39.3299 36.6265 38.4275C36.5022 37.4484 37.1947 36.5539 38.1734 36.4291C43.8205 35.7096 48.8775 34.1794 52.4126 32.1196C55.6457 30.2362 57.4258 28.0218 57.4258 25.8847C57.4258 23.5294 55.3427 21.6022 53.5947 20.3996C52.7817 19.8402 52.576 18.7279 53.1354 17.9144C53.6948 17.1014 54.8075 16.8957 55.6206 17.4551C59.1399 19.876 61.0001 22.7908 61.0001 25.8852C61.0001 29.3971 58.6531 32.6208 54.2123 35.208C50.215 37.5368 44.8253 39.1852 38.6253 39.975C38.5486 39.9843 38.4722 39.9889 38.3973 39.9889Z" fill="white"/>
<path d="M30.0644 37.4287L25.2988 32.6631C24.6007 31.965 23.4693 31.965 22.7712 32.6631C22.0736 33.3607 22.0736 34.4925 22.7712 35.1902L24.1637 36.5826C18.8247 36.0311 13.9744 34.7881 10.2186 32.9819C5.99612 30.9514 3.57422 28.3643 3.57422 25.8846C3.57422 23.7815 5.30827 21.5956 8.45666 19.7293C9.306 19.2263 9.58617 18.1298 9.08308 17.2809C8.57952 16.4316 7.48306 16.1514 6.63418 16.6545C1.15092 19.9048 0 23.4679 0 25.8846C0 29.8498 3.07904 33.5143 8.66981 36.2033C13.0091 38.2897 18.6222 39.6873 24.7375 40.2281L22.7712 42.1943C22.0736 42.892 22.0736 44.0238 22.7712 44.7219C23.1203 45.0705 23.5777 45.245 24.0352 45.245C24.4922 45.245 24.9497 45.0705 25.2988 44.7219L30.0644 39.9563C30.762 39.2582 30.762 38.1263 30.0644 37.4287Z" fill="white"/>
<path d="M18.7168 22.3059V21.8758C18.7168 20.3591 17.7883 20.065 16.5434 20.065C15.7736 20.065 15.5246 19.386 15.5246 18.707C15.5246 18.0275 15.7736 17.3485 16.5434 17.3485C17.4034 17.3485 18.3091 17.2354 18.3091 15.4018C18.3091 14.0889 17.5621 13.772 16.6337 13.772C15.5246 13.772 14.9587 14.0437 14.9587 14.9266C14.9587 15.6959 14.619 16.2167 13.3061 16.2167C11.6763 16.2167 11.4729 15.8769 11.4729 14.7902C11.4729 13.025 12.7402 10.7385 16.6337 10.7385C19.5089 10.7385 21.6818 11.7796 21.6818 14.8358C21.6818 16.488 21.0707 18.0275 19.9389 18.5483C21.2746 19.0463 22.2477 20.0422 22.2477 21.8758V22.3059C22.2477 26.0183 19.6899 27.4219 16.5206 27.4219C12.6271 27.4219 11.1332 25.0452 11.1332 23.1436C11.1332 22.1248 11.5632 21.853 12.8081 21.853C14.2569 21.853 14.619 22.17 14.619 23.0305C14.619 24.0944 15.6154 24.3434 16.6337 24.3434C18.1732 24.3434 18.7168 23.7774 18.7168 22.3059Z" fill="white"/>
<path d="M35.9884 21.8758V22.0797C35.9884 25.9732 33.566 27.4219 30.4423 27.4219C27.3186 27.4219 24.8734 25.9732 24.8734 22.0797V16.0808C24.8734 12.1873 27.3861 10.7385 30.6461 10.7385C34.4717 10.7385 35.9884 13.1153 35.9884 14.9941C35.9884 16.0808 35.4676 16.42 34.3358 16.42C33.3626 16.42 32.5021 16.1711 32.5021 15.13C32.5021 14.2699 31.5969 13.8171 30.5331 13.8171C29.1974 13.8171 28.4048 14.5189 28.4048 16.0808V18.1178C29.1294 17.3257 30.1482 17.1219 31.2349 17.1219C33.815 17.1219 35.9884 18.2537 35.9884 21.8758ZM28.4048 22.3287C28.4048 23.8905 29.1746 24.5695 30.4423 24.5695C31.71 24.5695 32.457 23.8905 32.457 22.3287V22.1248C32.457 20.4722 31.71 19.8384 30.4195 19.8384C29.1974 19.8384 28.4048 20.4271 28.4048 21.921V22.3287Z" fill="white"/>
<path d="M38.7272 22.0797V16.0808C38.7272 12.1873 41.1491 10.7385 44.2733 10.7385C47.397 10.7385 49.8417 12.1873 49.8417 16.0808V22.0797C49.8417 25.9732 47.397 27.4219 44.2733 27.4219C41.1491 27.4219 38.7272 25.9732 38.7272 22.0797ZM46.3103 16.0808C46.3103 14.5189 45.541 13.8171 44.2733 13.8171C43.0055 13.8171 42.2586 14.5189 42.2586 16.0808V22.0797C42.2586 23.6415 43.0055 24.3434 44.2733 24.3434C45.541 24.3434 46.3103 23.6415 46.3103 22.0797V16.0808Z" fill="white"/>
<path d="M54.1317 10.7227C51.1751 10.7227 48.7704 8.3175 48.7704 5.36133C48.7704 2.40515 51.1751 0 54.1317 0C57.0879 0 59.493 2.40515 59.493 5.36133C59.493 8.3175 57.0879 10.7227 54.1317 10.7227ZM54.1317 3.57422C53.146 3.57422 52.3446 4.37609 52.3446 5.36133C52.3446 6.34703 53.146 7.14844 54.1317 7.14844C55.117 7.14844 55.9188 6.34703 55.9188 5.36133C55.9188 4.37609 55.117 3.57422 54.1317 3.57422Z" fill="white"/>
</g>
<defs>
<clipPath id="clip0_1389_3871">
<rect width="61" height="61" fill="white"/>
</clipPath>
</defs>
</svg>
